# xmcd
#
# Track frame offsets: 
#        150
#        11720
#        21120
#        32215
#        41785
#        52572
#        65102
#        77030
#        90077
#        101267
#        110640
#        121115
#        131620
#        144737
#        156825
#        168412
#        180287
#        189682
#        202897
#        214497
#        225380
#        236680
#        247907
#        258660
#        271977
#        283552
#        295702
#        306865
#        317962
#        331255
#        343330
#
# Disc length: 4704 seconds
#
# Revision: 0
# Processed by: cddbd v1.5.2PL0 Copyright (c) Steve Scherf et al.
# Submitted via: ExactAudioCopy v0.95a4
#
DISCID=ba125e1f
DTITLE=Jimmie Dolan - Juke Box Boogie
DYEAR=1900
DGENRE=Country
TTITLE0=Hot Rod Race
TTITLE1=Look-A Here, Baby
TTITLE2=Who's Kidding Who
TTITLE3=Juke Box Boogie
TTITLE4=Nicotine Fits
TTITLE5=Tennessee Baby
TTITLE6=I'll Never Go Sailing Again
TTITLE7=Playin' Dominoes And Shootin' Dice
TTITLE8=All Alone In Texas
TTITLE9=Tool Pusher On A Rotary Rig
TTITLE10=I Wonder If I Can Lose The Blues This Way
TTITLE11=Jolly Captain Huddlestead
TTITLE12=It Had To Come Someday
TTITLE13=RFD Blues
TTITLE14=Hot Rod Mama
TTITLE15=Good-Bye My One And Only
TTITLE16=One Diamond Ring
TTITLE17=Rack Up The Balls Boys
TTITLE18=I Ain't Gonna Bring My Bacon Home To You
TTITLE19=A Load Of Trouble (And A Worried Mind)
TTITLE20=The Wheel That Does The Squeakin'
TTITLE21=Washed Away With The Tide
TTITLE22=Wine, Women And Pink Elephants
TTITLE23=I'm Gonna Whittle You Down To Size
TTITLE24=You Ought To See Me Sunshine
TTITLE25=Wham! Bam! Thank You Ma'am
TTITLE26=Lost Love Blues
TTITLE27=I'm Alone Because I Love You
TTITLE28=I'll Sail My Ship Alone
TTITLE29=Sorrows I Can't Hide
TTITLE30=Black Denim Trousers And Motorcycle Boots
EXTD=
EXTT0=
EXTT1=
EXTT2=
EXTT3=
EXTT4=
EXTT5=
EXTT6=
EXTT7=
EXTT8=
EXTT9=
EXTT10=
EXTT11=
EXTT12=
EXTT13=
EXTT14=
EXTT15=
EXTT16=
EXTT17=
EXTT18=
EXTT19=
EXTT20=
EXTT21=
EXTT22=
EXTT23=
EXTT24=
EXTT25=
EXTT26=
EXTT27=
EXTT28=
EXTT29=
EXTT30=
PLAYORDER=
